<mxfile host="app.diagrams.net" modified="2020-10-05T01:15:31.037Z" agent="5.0 (Windows NT 10.0; Win64; x64) AppleWebKit/537.36 (KHTML, like Gecko) Chrome/85.0.4183.121 Safari/537.36 Edg/85.0.564.68" etag="zvTcwuPykOPNyY7AIzeP" version="13.7.7" type="github">
  <diagram id="q3yGbHeHBMm56TrN2xyN" name="Page-1">
    <mxGraphModel dx="1422" dy="746" grid="1" gridSize="10" guides="1" tooltips="1" connect="1" arrows="1" fold="1" page="1" pageScale="1" pageWidth="850" pageHeight="1100" math="0" shadow="0">
      <root>
        <mxCell id="0" />
        <mxCell id="1" parent="0" />
        <mxCell id="pb2A7cby1DOB4EaiPdLD-1" value="Bushin Textile AI 검사기( 수집시스템) - Scanner" style="strokeWidth=1;shadow=0;dashed=0;align=center;html=1;shape=mxgraph.mockup.containers.window;align=left;verticalAlign=top;spacingLeft=8;strokeColor2=#008cff;strokeColor3=#c4c4c4;fontColor=#666666;mainText=;fontSize=17;labelBackgroundColor=none;" vertex="1" parent="1">
          <mxGeometry x="850" y="100" width="805" height="700" as="geometry" />
        </mxCell>
        <mxCell id="gFZSvJqnHt525H0wm190-12" value="Bushin Textile AI 검사기(테스트)" style="strokeWidth=1;shadow=0;dashed=0;align=center;html=1;shape=mxgraph.mockup.containers.window;align=left;verticalAlign=top;spacingLeft=8;strokeColor2=#008cff;strokeColor3=#c4c4c4;fontColor=#666666;mainText=;fontSize=17;labelBackgroundColor=none;" parent="1" vertex="1">
          <mxGeometry x="25" y="100" width="805" height="700" as="geometry" />
        </mxCell>
        <mxCell id="gFZSvJqnHt525H0wm190-13" value="" style="verticalLabelPosition=bottom;shadow=0;dashed=0;align=center;html=1;verticalAlign=top;strokeWidth=1;shape=mxgraph.mockup.misc.map;" parent="1" vertex="1">
          <mxGeometry x="45" y="150" width="540" height="400" as="geometry" />
        </mxCell>
        <mxCell id="gFZSvJqnHt525H0wm190-14" value="" style="strokeWidth=1;shadow=0;dashed=0;align=center;html=1;shape=mxgraph.mockup.forms.rrect;rSize=0;strokeColor=#999999;fillColor=#ffffff;recursiveResize=0;" parent="1" vertex="1">
          <mxGeometry x="605" y="150" width="200" height="260" as="geometry" />
        </mxCell>
        <mxCell id="gFZSvJqnHt525H0wm190-15" value="Pattern1" style="strokeWidth=1;shadow=0;dashed=0;align=center;html=1;shape=mxgraph.mockup.forms.rrect;rSize=0;fillColor=#eeeeee;strokeColor=#999999;gradientColor=#cccccc;align=left;spacingLeft=4;fontSize=17;fontColor=#666666;labelPosition=right;" parent="gFZSvJqnHt525H0wm190-14" vertex="1">
          <mxGeometry x="8" y="7.5" width="15" height="15" as="geometry" />
        </mxCell>
        <mxCell id="gFZSvJqnHt525H0wm190-16" value="Pattern2" style="strokeWidth=1;shadow=0;dashed=0;align=center;html=1;shape=mxgraph.mockup.forms.rrect;rSize=0;fillColor=#eeeeee;strokeColor=#999999;gradientColor=#cccccc;align=left;spacingLeft=4;fontSize=17;fontColor=#666666;labelPosition=right;" parent="gFZSvJqnHt525H0wm190-14" vertex="1">
          <mxGeometry x="8" y="37.5" width="15" height="15" as="geometry" />
        </mxCell>
        <mxCell id="gFZSvJqnHt525H0wm190-17" value="Pattern3" style="strokeWidth=1;shadow=0;dashed=0;align=center;html=1;shape=mxgraph.mockup.forms.checkbox;rSize=0;resizable=0;fillColor=#aaaaaa;strokeColor=#444444;gradientColor=#666666;align=left;spacingLeft=4;fontSize=17;fontColor=#008cff;labelPosition=right;" parent="gFZSvJqnHt525H0wm190-14" vertex="1">
          <mxGeometry x="8" y="67.5" width="15" height="15" as="geometry" />
        </mxCell>
        <mxCell id="gFZSvJqnHt525H0wm190-18" value="Pattern4" style="strokeWidth=1;shadow=0;dashed=0;align=center;html=1;shape=mxgraph.mockup.forms.rrect;rSize=0;fillColor=#eeeeee;strokeColor=#999999;gradientColor=#cccccc;align=left;spacingLeft=4;fontSize=17;fontColor=#666666;labelPosition=right;" parent="gFZSvJqnHt525H0wm190-14" vertex="1">
          <mxGeometry x="8" y="97.5" width="15" height="15" as="geometry" />
        </mxCell>
        <mxCell id="gFZSvJqnHt525H0wm190-26" value="" style="verticalLabelPosition=bottom;shadow=0;dashed=0;align=center;html=1;verticalAlign=top;strokeWidth=1;shape=mxgraph.mockup.forms.horSlider;strokeColor=#999999;sliderStyle=basic;sliderPos=20;handleStyle=circle;fillColor2=#ddeeff;direction=north;" parent="gFZSvJqnHt525H0wm190-14" vertex="1">
          <mxGeometry x="165" width="30" height="260" as="geometry" />
        </mxCell>
        <mxCell id="gFZSvJqnHt525H0wm190-19" value="Analysis" style="strokeWidth=1;shadow=0;dashed=0;align=center;html=1;shape=mxgraph.mockup.buttons.button;strokeColor=#666666;fontColor=#ffffff;mainText=;buttonStyle=round;fontSize=17;fontStyle=1;fillColor=#008cff;whiteSpace=wrap;" parent="1" vertex="1">
          <mxGeometry x="605" y="500" width="200" height="50" as="geometry" />
        </mxCell>
        <mxCell id="gFZSvJqnHt525H0wm190-21" value="" style="strokeWidth=1;shadow=0;dashed=0;align=center;html=1;shape=mxgraph.mockup.containers.marginRect2;rectMarginTop=32;strokeColor=#666666;gradientColor=none;" parent="1" vertex="1">
          <mxGeometry x="880" y="590" width="760" height="200" as="geometry" />
        </mxCell>
        <mxCell id="gFZSvJqnHt525H0wm190-22" value="Log" style="strokeColor=inherit;fillColor=inherit;gradientColor=inherit;strokeWidth=1;shadow=0;dashed=0;align=center;html=1;shape=mxgraph.mockup.containers.rrect;rSize=0;fontSize=17;fontColor=#666666;gradientColor=none;" parent="gFZSvJqnHt525H0wm190-21" vertex="1">
          <mxGeometry width="60" height="25" relative="1" as="geometry">
            <mxPoint x="10" as="offset" />
          </mxGeometry>
        </mxCell>
        <mxCell id="gFZSvJqnHt525H0wm190-23" value="Log2" style="strokeWidth=1;shadow=0;dashed=0;align=center;html=1;shape=mxgraph.mockup.containers.rrect;rSize=0;fontSize=17;fontColor=#ffffff;strokeColor=#008cff;fillColor=#008cff;" parent="gFZSvJqnHt525H0wm190-21" vertex="1">
          <mxGeometry width="60" height="25" relative="1" as="geometry">
            <mxPoint x="75" as="offset" />
          </mxGeometry>
        </mxCell>
        <mxCell id="gFZSvJqnHt525H0wm190-24" value="Log3" style="strokeColor=inherit;fillColor=inherit;gradientColor=inherit;strokeWidth=1;shadow=0;dashed=0;align=center;html=1;shape=mxgraph.mockup.containers.rrect;rSize=0;fontSize=17;fontColor=#666666;gradientColor=none;" parent="gFZSvJqnHt525H0wm190-21" vertex="1">
          <mxGeometry width="60" height="25" relative="1" as="geometry">
            <mxPoint x="140" as="offset" />
          </mxGeometry>
        </mxCell>
        <mxCell id="gFZSvJqnHt525H0wm190-25" value="" style="strokeWidth=1;shadow=0;dashed=0;align=center;html=1;shape=mxgraph.mockup.containers.topButton;rSize=5;strokeColor=#008cff;fillColor=#008cff;gradientColor=none;resizeWidth=1;movable=0;deletable=1;" parent="gFZSvJqnHt525H0wm190-21" vertex="1">
          <mxGeometry width="760" height="7" relative="1" as="geometry">
            <mxPoint y="25" as="offset" />
          </mxGeometry>
        </mxCell>
        <mxCell id="gFZSvJqnHt525H0wm190-27" value="Select Pattern" style="strokeWidth=1;shadow=0;dashed=0;align=center;html=1;shape=mxgraph.mockup.buttons.button;strokeColor=#6c8ebf;mainText=;buttonStyle=round;fontSize=17;fontStyle=1;fillColor=#dae8fc;whiteSpace=wrap;" parent="1" vertex="1">
          <mxGeometry x="607.5" y="430" width="200" height="50" as="geometry" />
        </mxCell>
        <mxCell id="gFZSvJqnHt525H0wm190-28" value="Bushin Textile AI 검사기(테스트)" style="strokeWidth=1;shadow=0;dashed=0;align=center;html=1;shape=mxgraph.mockup.containers.window;align=left;verticalAlign=top;spacingLeft=8;strokeColor2=#008cff;strokeColor3=#c4c4c4;fontColor=#666666;mainText=;fontSize=17;labelBackgroundColor=none;" parent="1" vertex="1">
          <mxGeometry x="25" y="830" width="805" height="700" as="geometry" />
        </mxCell>
        <mxCell id="gFZSvJqnHt525H0wm190-40" value="" style="verticalLabelPosition=bottom;shadow=0;dashed=0;align=center;html=1;verticalAlign=top;strokeWidth=1;shape=mxgraph.mockup.graphics.simpleIcon;strokeColor=#999999;" parent="1" vertex="1">
          <mxGeometry x="47.5" y="880" width="550" height="380" as="geometry" />
        </mxCell>
        <mxCell id="gFZSvJqnHt525H0wm190-41" value="Cut Images" style="strokeWidth=1;shadow=0;dashed=0;align=center;html=1;shape=mxgraph.mockup.buttons.button;strokeColor=#6c8ebf;mainText=;buttonStyle=round;fontSize=17;fontStyle=1;fillColor=#dae8fc;whiteSpace=wrap;" parent="1" vertex="1">
          <mxGeometry x="617.5" y="880" width="200" height="50" as="geometry" />
        </mxCell>
        <mxCell id="gFZSvJqnHt525H0wm190-46" value="" style="strokeWidth=1;shadow=0;dashed=0;align=center;html=1;shape=mxgraph.mockup.containers.marginRect2;rectMarginTop=32;strokeColor=#666666;gradientColor=none;" parent="1" vertex="1">
          <mxGeometry x="47.5" y="1300" width="760" height="200" as="geometry" />
        </mxCell>
        <mxCell id="gFZSvJqnHt525H0wm190-47" value="Log" style="strokeColor=inherit;fillColor=inherit;gradientColor=inherit;strokeWidth=1;shadow=0;dashed=0;align=center;html=1;shape=mxgraph.mockup.containers.rrect;rSize=0;fontSize=17;fontColor=#666666;gradientColor=none;" parent="gFZSvJqnHt525H0wm190-46" vertex="1">
          <mxGeometry width="60" height="25" relative="1" as="geometry">
            <mxPoint x="10" as="offset" />
          </mxGeometry>
        </mxCell>
        <mxCell id="gFZSvJqnHt525H0wm190-48" value="Log2" style="strokeWidth=1;shadow=0;dashed=0;align=center;html=1;shape=mxgraph.mockup.containers.rrect;rSize=0;fontSize=17;fontColor=#ffffff;strokeColor=#008cff;fillColor=#008cff;" parent="gFZSvJqnHt525H0wm190-46" vertex="1">
          <mxGeometry width="60" height="25" relative="1" as="geometry">
            <mxPoint x="75" as="offset" />
          </mxGeometry>
        </mxCell>
        <mxCell id="gFZSvJqnHt525H0wm190-49" value="Log3" style="strokeColor=inherit;fillColor=inherit;gradientColor=inherit;strokeWidth=1;shadow=0;dashed=0;align=center;html=1;shape=mxgraph.mockup.containers.rrect;rSize=0;fontSize=17;fontColor=#666666;gradientColor=none;" parent="gFZSvJqnHt525H0wm190-46" vertex="1">
          <mxGeometry width="60" height="25" relative="1" as="geometry">
            <mxPoint x="140" as="offset" />
          </mxGeometry>
        </mxCell>
        <mxCell id="gFZSvJqnHt525H0wm190-50" value="" style="strokeWidth=1;shadow=0;dashed=0;align=center;html=1;shape=mxgraph.mockup.containers.topButton;rSize=5;strokeColor=#008cff;fillColor=#008cff;gradientColor=none;resizeWidth=1;movable=0;deletable=1;" parent="gFZSvJqnHt525H0wm190-46" vertex="1">
          <mxGeometry width="760" height="7" relative="1" as="geometry">
            <mxPoint y="25" as="offset" />
          </mxGeometry>
        </mxCell>
        <mxCell id="gFZSvJqnHt525H0wm190-51" value="" style="strokeWidth=1;shadow=0;dashed=0;align=center;html=1;shape=mxgraph.mockup.forms.rrect;rSize=0;strokeColor=#999999;fillColor=#ffffff;recursiveResize=0;" parent="1" vertex="1">
          <mxGeometry x="617.5" y="940" width="200" height="260" as="geometry" />
        </mxCell>
        <mxCell id="gFZSvJqnHt525H0wm190-52" value="Image 1" style="strokeWidth=1;shadow=0;dashed=0;align=center;html=1;shape=mxgraph.mockup.forms.rrect;rSize=0;fillColor=#eeeeee;strokeColor=#999999;gradientColor=#cccccc;align=left;spacingLeft=4;fontSize=17;fontColor=#666666;labelPosition=right;" parent="gFZSvJqnHt525H0wm190-51" vertex="1">
          <mxGeometry x="8" y="7.5" width="15" height="15" as="geometry" />
        </mxCell>
        <mxCell id="gFZSvJqnHt525H0wm190-53" value="Image 2" style="strokeWidth=1;shadow=0;dashed=0;align=center;html=1;shape=mxgraph.mockup.forms.rrect;rSize=0;fillColor=#eeeeee;strokeColor=#999999;gradientColor=#cccccc;align=left;spacingLeft=4;fontSize=17;fontColor=#666666;labelPosition=right;" parent="gFZSvJqnHt525H0wm190-51" vertex="1">
          <mxGeometry x="8" y="37.5" width="15" height="15" as="geometry" />
        </mxCell>
        <mxCell id="gFZSvJqnHt525H0wm190-54" value="Image 3" style="strokeWidth=1;shadow=0;dashed=0;align=center;html=1;shape=mxgraph.mockup.forms.checkbox;rSize=0;resizable=0;fillColor=#aaaaaa;strokeColor=#444444;gradientColor=#666666;align=left;spacingLeft=4;fontSize=17;fontColor=#008cff;labelPosition=right;" parent="gFZSvJqnHt525H0wm190-51" vertex="1">
          <mxGeometry x="8" y="67.5" width="15" height="15" as="geometry" />
        </mxCell>
        <mxCell id="gFZSvJqnHt525H0wm190-55" value="Image 4" style="strokeWidth=1;shadow=0;dashed=0;align=center;html=1;shape=mxgraph.mockup.forms.rrect;rSize=0;fillColor=#eeeeee;strokeColor=#999999;gradientColor=#cccccc;align=left;spacingLeft=4;fontSize=17;fontColor=#666666;labelPosition=right;" parent="gFZSvJqnHt525H0wm190-51" vertex="1">
          <mxGeometry x="8" y="97.5" width="15" height="15" as="geometry" />
        </mxCell>
        <mxCell id="gFZSvJqnHt525H0wm190-56" value="" style="verticalLabelPosition=bottom;shadow=0;dashed=0;align=center;html=1;verticalAlign=top;strokeWidth=1;shape=mxgraph.mockup.forms.horSlider;strokeColor=#999999;sliderStyle=basic;sliderPos=20;handleStyle=circle;fillColor2=#ddeeff;direction=north;" parent="gFZSvJqnHt525H0wm190-51" vertex="1">
          <mxGeometry x="165" width="30" height="260" as="geometry" />
        </mxCell>
        <mxCell id="gFZSvJqnHt525H0wm190-57" value="Analysis" style="strokeWidth=1;shadow=0;dashed=0;align=center;html=1;shape=mxgraph.mockup.buttons.button;strokeColor=#666666;fontColor=#ffffff;mainText=;buttonStyle=round;fontSize=17;fontStyle=1;fillColor=#008cff;whiteSpace=wrap;" parent="1" vertex="1">
          <mxGeometry x="617.5" y="1210" width="200" height="50" as="geometry" />
        </mxCell>
        <mxCell id="pb2A7cby1DOB4EaiPdLD-2" value="" style="verticalLabelPosition=bottom;shadow=0;dashed=0;align=center;html=1;verticalAlign=top;strokeWidth=1;shape=mxgraph.mockup.misc.map;" vertex="1" parent="1">
          <mxGeometry x="870" y="150" width="540" height="400" as="geometry" />
        </mxCell>
        <mxCell id="pb2A7cby1DOB4EaiPdLD-4" value="수집 시작&amp;nbsp;" style="strokeWidth=1;shadow=0;dashed=0;align=center;html=1;shape=mxgraph.mockup.buttons.button;strokeColor=#6c8ebf;mainText=;buttonStyle=round;fontSize=17;fontStyle=1;fillColor=#dae8fc;whiteSpace=wrap;" vertex="1" parent="1">
          <mxGeometry x="1432.5" y="430" width="200" height="50" as="geometry" />
        </mxCell>
        <mxCell id="pb2A7cby1DOB4EaiPdLD-5" value="" style="strokeWidth=1;shadow=0;dashed=0;align=center;html=1;shape=mxgraph.mockup.forms.rrect;rSize=0;strokeColor=#999999;fillColor=#ffffff;recursiveResize=0;" vertex="1" parent="1">
          <mxGeometry x="1430" y="270" width="200" height="130" as="geometry" />
        </mxCell>
        <mxCell id="pb2A7cby1DOB4EaiPdLD-6" value="Scanner1" style="strokeWidth=1;shadow=0;dashed=0;align=center;html=1;shape=mxgraph.mockup.forms.rrect;rSize=0;fillColor=#eeeeee;strokeColor=#999999;gradientColor=#cccccc;align=left;spacingLeft=4;fontSize=17;fontColor=#666666;labelPosition=right;" vertex="1" parent="pb2A7cby1DOB4EaiPdLD-5">
          <mxGeometry x="8" y="7.5" width="15" height="15" as="geometry" />
        </mxCell>
        <mxCell id="pb2A7cby1DOB4EaiPdLD-7" value="Scanner2" style="strokeWidth=1;shadow=0;dashed=0;align=center;html=1;shape=mxgraph.mockup.forms.rrect;rSize=0;fillColor=#eeeeee;strokeColor=#999999;gradientColor=#cccccc;align=left;spacingLeft=4;fontSize=17;fontColor=#666666;labelPosition=right;" vertex="1" parent="pb2A7cby1DOB4EaiPdLD-5">
          <mxGeometry x="8" y="37.5" width="15" height="15" as="geometry" />
        </mxCell>
        <mxCell id="pb2A7cby1DOB4EaiPdLD-8" value="Scanner3" style="strokeWidth=1;shadow=0;dashed=0;align=center;html=1;shape=mxgraph.mockup.forms.checkbox;rSize=0;resizable=0;fillColor=#aaaaaa;strokeColor=#444444;gradientColor=#666666;align=left;spacingLeft=4;fontSize=17;fontColor=#008cff;labelPosition=right;" vertex="1" parent="pb2A7cby1DOB4EaiPdLD-5">
          <mxGeometry x="8" y="67.5" width="15" height="15" as="geometry" />
        </mxCell>
        <mxCell id="pb2A7cby1DOB4EaiPdLD-10" value="" style="verticalLabelPosition=bottom;shadow=0;dashed=0;align=center;html=1;verticalAlign=top;strokeWidth=1;shape=mxgraph.mockup.forms.horSlider;strokeColor=#999999;sliderStyle=basic;sliderPos=20;handleStyle=circle;fillColor2=#ddeeff;direction=north;" vertex="1" parent="pb2A7cby1DOB4EaiPdLD-5">
          <mxGeometry x="165" width="30" height="110" as="geometry" />
        </mxCell>
        <mxCell id="pb2A7cby1DOB4EaiPdLD-11" value="Text" style="text;html=1;strokeColor=none;fillColor=none;align=center;verticalAlign=middle;whiteSpace=wrap;rounded=0;" vertex="1" parent="1">
          <mxGeometry x="1260" y="910" width="40" height="20" as="geometry" />
        </mxCell>
        <mxCell id="pb2A7cby1DOB4EaiPdLD-13" value="원단 정보" style="strokeWidth=1;shadow=0;dashed=0;align=center;html=1;shape=mxgraph.mockup.buttons.button;strokeColor=#6c8ebf;mainText=;buttonStyle=round;fontSize=17;fontStyle=1;fillColor=#dae8fc;whiteSpace=wrap;" vertex="1" parent="1">
          <mxGeometry x="1426.5" y="150" width="200" height="50" as="geometry" />
        </mxCell>
        <mxCell id="pb2A7cby1DOB4EaiPdLD-14" value="Bushin Textile AI 검사기( 원단정보) - 수집기" style="strokeWidth=1;shadow=0;dashed=0;align=center;html=1;shape=mxgraph.mockup.containers.window;align=left;verticalAlign=top;spacingLeft=8;strokeColor2=#008cff;strokeColor3=#c4c4c4;fontColor=#666666;mainText=;fontSize=17;labelBackgroundColor=none;" vertex="1" parent="1">
          <mxGeometry x="850" y="830" width="805" height="700" as="geometry" />
        </mxCell>
        <mxCell id="pb2A7cby1DOB4EaiPdLD-15" value="" style="strokeWidth=1;shadow=0;dashed=0;align=center;html=1;shape=mxgraph.mockup.forms.rrect;rSize=0;strokeColor=#999999;fillColor=#ffffff;recursiveResize=0;" vertex="1" parent="1">
          <mxGeometry x="870" y="918" width="320" height="130" as="geometry" />
        </mxCell>
        <mxCell id="pb2A7cby1DOB4EaiPdLD-16" value="제품1" style="strokeWidth=1;shadow=0;dashed=0;align=center;html=1;shape=mxgraph.mockup.forms.rrect;rSize=0;fillColor=#eeeeee;strokeColor=#999999;gradientColor=#cccccc;align=left;spacingLeft=4;fontSize=17;fontColor=#666666;labelPosition=right;" vertex="1" parent="pb2A7cby1DOB4EaiPdLD-15">
          <mxGeometry x="8" y="7.5" width="15" height="15" as="geometry" />
        </mxCell>
        <mxCell id="pb2A7cby1DOB4EaiPdLD-17" value="제품2" style="strokeWidth=1;shadow=0;dashed=0;align=center;html=1;shape=mxgraph.mockup.forms.rrect;rSize=0;fillColor=#eeeeee;strokeColor=#999999;gradientColor=#cccccc;align=left;spacingLeft=4;fontSize=17;fontColor=#666666;labelPosition=right;" vertex="1" parent="pb2A7cby1DOB4EaiPdLD-15">
          <mxGeometry x="8" y="37.5" width="15" height="15" as="geometry" />
        </mxCell>
        <mxCell id="pb2A7cby1DOB4EaiPdLD-18" value="제품3" style="strokeWidth=1;shadow=0;dashed=0;align=center;html=1;shape=mxgraph.mockup.forms.checkbox;rSize=0;resizable=0;fillColor=#aaaaaa;strokeColor=#444444;gradientColor=#666666;align=left;spacingLeft=4;fontSize=17;fontColor=#008cff;labelPosition=right;" vertex="1" parent="pb2A7cby1DOB4EaiPdLD-15">
          <mxGeometry x="8" y="67.5" width="15" height="15" as="geometry" />
        </mxCell>
        <mxCell id="pb2A7cby1DOB4EaiPdLD-19" value="" style="verticalLabelPosition=bottom;shadow=0;dashed=0;align=center;html=1;verticalAlign=top;strokeWidth=1;shape=mxgraph.mockup.forms.horSlider;strokeColor=#999999;sliderStyle=basic;sliderPos=20;handleStyle=circle;fillColor2=#ddeeff;direction=north;" vertex="1" parent="pb2A7cby1DOB4EaiPdLD-15">
          <mxGeometry x="270" width="30" height="110" as="geometry" />
        </mxCell>
        <mxCell id="pb2A7cby1DOB4EaiPdLD-21" value="" style="verticalLabelPosition=bottom;shadow=0;dashed=0;align=center;html=1;verticalAlign=top;strokeWidth=1;shape=mxgraph.mockup.misc.map;" vertex="1" parent="1">
          <mxGeometry x="870" y="1074" width="320" height="375" as="geometry" />
        </mxCell>
        <mxCell id="pb2A7cby1DOB4EaiPdLD-25" value="&lt;font style=&quot;font-size: 20px&quot;&gt;제품 이미지&lt;/font&gt;" style="text;html=1;strokeColor=none;fillColor=none;align=center;verticalAlign=middle;whiteSpace=wrap;rounded=0;" vertex="1" parent="1">
          <mxGeometry x="890" y="1149" width="260" height="80" as="geometry" />
        </mxCell>
        <mxCell id="pb2A7cby1DOB4EaiPdLD-26" value="&lt;span style=&quot;font-size: 20px&quot;&gt;스캔정보 폴더&lt;/span&gt;" style="text;html=1;strokeColor=none;fillColor=none;align=center;verticalAlign=middle;whiteSpace=wrap;rounded=0;" vertex="1" parent="1">
          <mxGeometry x="1270" y="880" width="260" height="80" as="geometry" />
        </mxCell>
        <mxCell id="pb2A7cby1DOB4EaiPdLD-27" value="" style="strokeWidth=1;shadow=0;dashed=0;align=center;html=1;shape=mxgraph.mockup.containers.marginRect2;rectMarginTop=32;strokeColor=#666666;gradientColor=none;" vertex="1" parent="1">
          <mxGeometry x="57.5" y="590" width="760" height="200" as="geometry" />
        </mxCell>
        <mxCell id="pb2A7cby1DOB4EaiPdLD-28" value="Log" style="strokeColor=inherit;fillColor=inherit;gradientColor=inherit;strokeWidth=1;shadow=0;dashed=0;align=center;html=1;shape=mxgraph.mockup.containers.rrect;rSize=0;fontSize=17;fontColor=#666666;gradientColor=none;" vertex="1" parent="pb2A7cby1DOB4EaiPdLD-27">
          <mxGeometry width="60" height="25" relative="1" as="geometry">
            <mxPoint x="10" as="offset" />
          </mxGeometry>
        </mxCell>
        <mxCell id="pb2A7cby1DOB4EaiPdLD-29" value="Log2" style="strokeWidth=1;shadow=0;dashed=0;align=center;html=1;shape=mxgraph.mockup.containers.rrect;rSize=0;fontSize=17;fontColor=#ffffff;strokeColor=#008cff;fillColor=#008cff;" vertex="1" parent="pb2A7cby1DOB4EaiPdLD-27">
          <mxGeometry width="60" height="25" relative="1" as="geometry">
            <mxPoint x="75" as="offset" />
          </mxGeometry>
        </mxCell>
        <mxCell id="pb2A7cby1DOB4EaiPdLD-30" value="Log3" style="strokeColor=inherit;fillColor=inherit;gradientColor=inherit;strokeWidth=1;shadow=0;dashed=0;align=center;html=1;shape=mxgraph.mockup.containers.rrect;rSize=0;fontSize=17;fontColor=#666666;gradientColor=none;" vertex="1" parent="pb2A7cby1DOB4EaiPdLD-27">
          <mxGeometry width="60" height="25" relative="1" as="geometry">
            <mxPoint x="140" as="offset" />
          </mxGeometry>
        </mxCell>
        <mxCell id="pb2A7cby1DOB4EaiPdLD-31" value="" style="strokeWidth=1;shadow=0;dashed=0;align=center;html=1;shape=mxgraph.mockup.containers.topButton;rSize=5;strokeColor=#008cff;fillColor=#008cff;gradientColor=none;resizeWidth=1;movable=0;deletable=1;" vertex="1" parent="pb2A7cby1DOB4EaiPdLD-27">
          <mxGeometry width="760" height="7" relative="1" as="geometry">
            <mxPoint y="25" as="offset" />
          </mxGeometry>
        </mxCell>
        <mxCell id="pb2A7cby1DOB4EaiPdLD-33" value="스캐너" style="text;html=1;strokeColor=none;fillColor=none;align=center;verticalAlign=middle;whiteSpace=wrap;rounded=0;" vertex="1" parent="1">
          <mxGeometry x="1432.5" y="230" width="57.5" height="20" as="geometry" />
        </mxCell>
        <mxCell id="pb2A7cby1DOB4EaiPdLD-35" style="edgeStyle=orthogonalEdgeStyle;rounded=0;orthogonalLoop=1;jettySize=auto;html=1;exitX=0.25;exitY=0;exitDx=0;exitDy=0;" edge="1" parent="1" source="pb2A7cby1DOB4EaiPdLD-34" target="pb2A7cby1DOB4EaiPdLD-5">
          <mxGeometry relative="1" as="geometry">
            <mxPoint x="1670" y="280" as="targetPoint" />
          </mxGeometry>
        </mxCell>
        <mxCell id="pb2A7cby1DOB4EaiPdLD-34" value="&lt;font color=&quot;#666666&quot; face=&quot;helvetica&quot;&gt;&lt;span style=&quot;font-size: 17px&quot;&gt;다중 클릭 가능&amp;nbsp;&lt;/span&gt;&lt;/font&gt;" style="text;whiteSpace=wrap;html=1;align=center;" vertex="1" parent="1">
          <mxGeometry x="1710" y="360" width="90" height="70" as="geometry" />
        </mxCell>
        <mxCell id="pb2A7cby1DOB4EaiPdLD-36" style="edgeStyle=orthogonalEdgeStyle;rounded=0;orthogonalLoop=1;jettySize=auto;html=1;" edge="1" parent="1" source="pb2A7cby1DOB4EaiPdLD-37">
          <mxGeometry relative="1" as="geometry">
            <mxPoint x="1626.5" y="175" as="targetPoint" />
            <mxPoint x="1749" y="175" as="sourcePoint" />
            <Array as="points">
              <mxPoint x="1755" y="170" />
              <mxPoint x="1627" y="170" />
            </Array>
          </mxGeometry>
        </mxCell>
        <mxCell id="pb2A7cby1DOB4EaiPdLD-37" value="&lt;font color=&quot;#666666&quot; face=&quot;helvetica&quot;&gt;&lt;span style=&quot;font-size: 17px&quot;&gt;원단정보&lt;br&gt;&lt;div style=&quot;text-align: center&quot;&gt;&lt;span&gt;페이지&lt;/span&gt;&lt;/div&gt;&lt;/span&gt;&lt;/font&gt;" style="text;whiteSpace=wrap;html=1;" vertex="1" parent="1">
          <mxGeometry x="1710" y="190" width="90" height="70" as="geometry" />
        </mxCell>
        <mxCell id="pb2A7cby1DOB4EaiPdLD-38" value="수집 분석" style="strokeWidth=1;shadow=0;dashed=0;align=center;html=1;shape=mxgraph.mockup.buttons.button;strokeColor=#666666;fontColor=#ffffff;mainText=;buttonStyle=round;fontSize=17;fontStyle=1;fillColor=#008cff;whiteSpace=wrap;" vertex="1" parent="1">
          <mxGeometry x="1430" y="500" width="200" height="50" as="geometry" />
        </mxCell>
        <mxCell id="pb2A7cby1DOB4EaiPdLD-39" value="c&lt;span style=&quot;color: rgba(0 , 0 , 0 , 0) ; font-family: monospace ; font-size: 0px ; background-color: rgb(248 , 249 , 250)&quot;&gt;%3CmxGraphModel%3E%3Croot%3E%3CmxCell%20id%3D%220%22%2F%3E%3CmxCell%20id%3D%221%22%20parent%3D%220%22%2F%3E%3CmxCell%20id%3D%222%22%20style%3D%22edgeStyle%3DorthogonalEdgeStyle%3Brounded%3D0%3BorthogonalLoop%3D1%3BjettySize%3Dauto%3Bhtml%3D1%3BexitX%3D-0.056%3BexitY%3D0.414%3BexitDx%3D0%3BexitDy%3D0%3BexitPerimeter%3D0%3B%22%20edge%3D%221%22%20parent%3D%221%22%3E%3CmxGeometry%20relative%3D%221%22%20as%3D%22geometry%22%3E%3CmxPoint%20x%3D%221632.5%22%20y%3D%22455%22%20as%3D%22targetPoint%22%2F%3E%3CmxPoint%20x%3D%221688.2800000000002%22%20y%3D%22456.55999999999995%22%20as%3D%22sourcePoint%22%2F%3E%3C%2FmxGeometry%3E%3C%2FmxCell%3E%3C%2Froot%3E%3C%2FmxGraphModel%3E&lt;/span&gt;" style="edgeStyle=orthogonalEdgeStyle;rounded=0;orthogonalLoop=1;jettySize=auto;html=1;exitX=-0.056;exitY=0.414;exitDx=0;exitDy=0;exitPerimeter=0;" edge="1" parent="1" source="pb2A7cby1DOB4EaiPdLD-40" target="pb2A7cby1DOB4EaiPdLD-4">
          <mxGeometry relative="1" as="geometry">
            <mxPoint x="1640" y="345" as="targetPoint" />
            <mxPoint x="1730" y="450" as="sourcePoint" />
          </mxGeometry>
        </mxCell>
        <mxCell id="pb2A7cby1DOB4EaiPdLD-40" value="&lt;font color=&quot;#666666&quot; face=&quot;helvetica&quot;&gt;&lt;font style=&quot;font-size: 12px&quot;&gt;수집 시작 후에는&amp;nbsp;&lt;br&gt;중지버튼으로 변경&lt;/font&gt;&lt;br&gt;&lt;/font&gt;" style="text;whiteSpace=wrap;html=1;align=center;" vertex="1" parent="1">
          <mxGeometry x="1695" y="440" width="120" height="40" as="geometry" />
        </mxCell>
        <mxCell id="pb2A7cby1DOB4EaiPdLD-45" style="edgeStyle=orthogonalEdgeStyle;rounded=0;orthogonalLoop=1;jettySize=auto;html=1;exitX=0;exitY=0.5;exitDx=0;exitDy=0;" edge="1" parent="1" source="pb2A7cby1DOB4EaiPdLD-42" target="pb2A7cby1DOB4EaiPdLD-38">
          <mxGeometry relative="1" as="geometry" />
        </mxCell>
        <mxCell id="pb2A7cby1DOB4EaiPdLD-42" value="&lt;font color=&quot;#666666&quot; face=&quot;helvetica&quot;&gt;이미지로&amp;nbsp;&lt;br&gt;분류해서 저장&amp;nbsp;&lt;br&gt;&lt;/font&gt;" style="text;whiteSpace=wrap;html=1;align=center;" vertex="1" parent="1">
          <mxGeometry x="1700" y="505" width="120" height="40" as="geometry" />
        </mxCell>
        <mxCell id="pb2A7cby1DOB4EaiPdLD-46" value="&lt;font style=&quot;font-size: 18px&quot;&gt;Scan/제품명/날짜&lt;br&gt;(예시)Scan/NanoX10/20201005&lt;/font&gt;" style="text;html=1;strokeColor=none;fillColor=none;align=center;verticalAlign=middle;whiteSpace=wrap;rounded=0;" vertex="1" parent="1">
          <mxGeometry x="1270" y="960" width="275" height="50" as="geometry" />
        </mxCell>
        <mxCell id="pb2A7cby1DOB4EaiPdLD-48" value="&lt;font style=&quot;font-size: 20px&quot;&gt;사전 저장 Data&lt;br&gt;(DB 연동)&lt;br&gt;&lt;/font&gt;" style="text;html=1;strokeColor=none;fillColor=none;align=center;verticalAlign=middle;whiteSpace=wrap;rounded=0;" vertex="1" parent="1">
          <mxGeometry x="890" y="1439" width="260" height="80" as="geometry" />
        </mxCell>
        <mxCell id="pb2A7cby1DOB4EaiPdLD-51" value="원단 제품" style="shape=ellipse;fillColor=#eeeeee;strokeColor=#999999;gradientColor=#cccccc;html=1;align=left;spacingLeft=4;fontSize=17;fontColor=#666666;labelPosition=right;shadow=0;" vertex="1" parent="1">
          <mxGeometry x="880" y="880" width="15" height="15" as="geometry" />
        </mxCell>
        <mxCell id="pb2A7cby1DOB4EaiPdLD-52" value="신발 갑피" style="shape=ellipse;fillColor=#eeeeee;strokeColor=#999999;gradientColor=#cccccc;html=1;align=left;spacingLeft=4;fontSize=17;fontColor=#666666;labelPosition=right;shadow=0;" vertex="1" parent="1">
          <mxGeometry x="1080" y="880" width="15" height="15" as="geometry" />
        </mxCell>
        <mxCell id="pb2A7cby1DOB4EaiPdLD-55" value="&lt;font style=&quot;font-size: 20px&quot;&gt;검사 혹은 스캔 이력&amp;nbsp;&lt;br&gt;&lt;/font&gt;" style="text;html=1;strokeColor=none;fillColor=none;align=center;verticalAlign=middle;whiteSpace=wrap;rounded=0;" vertex="1" parent="1">
          <mxGeometry x="1285" y="1439" width="260" height="80" as="geometry" />
        </mxCell>
        <mxCell id="pb2A7cby1DOB4EaiPdLD-57" value="-Line 1&#xa;-Line 2&#xa;-Line 3&#xa;-Line 4" style="strokeWidth=1;shadow=0;dashed=0;align=center;html=1;shape=mxgraph.mockup.text.bulletedList;textColor=#666666;mainText=,,,,;textSize=17;bulletStyle=none;strokeColor=none;fillColor=none;align=left;verticalAlign=top;fontSize=17;fontColor=#666666;" vertex="1" parent="1">
          <mxGeometry x="1260" y="1070" width="370" height="380" as="geometry" />
        </mxCell>
      </root>
    </mxGraphModel>
  </diagram>
</mxfile>
